<svg xmlns="http://www.w3.org/2000/svg" xmlns:xlink="http://www.w3.org/1999/xlink" viewBox="0 0 416 337" xmlns:v="https://vecta.io/nano"><style><![CDATA[.o{fill:none}.p{stroke-miterlimit:10}.q{fill:#fff}.r{fill:#202f7c}.s{fill:#e2e7ff}.t{fill:#ff8d68}.u{fill:#26c6da}.v{fill:#4f57a0}.w{fill:#a9a7e7}.x{fill:#201360}.y{fill:#cae5ff}.z{fill:#387ab6}]]></style><path d="M0 0h416v337H0z" class="q"/><path d="M306.28 108.01h41.96v56.77h-41.96z" fill="#24adb2"/><path d="M301.96 108.01h41.96v56.77h-41.96z" class="u"/><path d="M291.47 102.25h41.96v62.53h-41.96z" fill="#0056bf"/><path d="M280.98 102.25h48.13v62.53h-48.13z" fill="#266fc9"/><path d="M320.88 102.25h8.23v62.53h-8.23z" fill="#00acff"/><path d="M88.88 117.88s-6.58 3.29-9.46 12.75 12.75 35 12.75 33.73 15.63-8.22 15.63-8.22l-7.8-28.8z" class="r"/><path d="M253.28 167.81l-8.69-22.97h-21.73l8.69 22.97" class="v"/><path d="M174.44 149.4h123.53l2.16-11.59H176.6" class="s"/><path d="M187.53 79.17l-10.93 58.64h123.53l10.68-57.28a3.7 3.7 0 0 0-3.64-4.38h-116a3.71 3.71 0 0 0-3.64 3.02z" fill="#243fa7"/><path d="M248.38 159.53l32.7-24.37-32.08-1.85-30.24 23.44 29.62 2.78z" class="q"/><path d="M239.23 151.61l8.23-4.52 8.17-3.29c.23 0 .93.77.08 2.39a4.7 4.7 0 0 1-3.09 2l-1.46 4.09 7.61-1.08 1.75-.41a35.16 35.16 0 0 1-1.75 3.8 22.75 22.75 0 0 1-3.4 2.57s-5.45 4.53-7.4 5a74.92 74.92 0 0 1-8.74.83l-4.32-.11-4 .83a18.63 18.63 0 0 1-1.75-9.16z" class="t"/><path d="M287.97 170.53l23.86 155.49h5.76l-15.63-156.31-13.99.82zm48.54 0l23.86 155.49h5.76L350.5 169.71l-13.99.82z" class="s"/><path d="M196.65 170.53L172.8 326.02h-5.76l15.63-156.31 13.98.82zm-48.53 0l-23.86 155.49h-5.76l15.63-156.31 13.99.82z" fill="#c2d3eb"/><path d="M139.07 168.89h214.72v7.4H139.07z" class="w"/><path d="M357.9 172.18H145.65a4.12 4.12 0 0 1-4.12-4.11h0a4.12 4.12 0 0 1 4.12-4.12H357.9a4.12 4.12 0 0 1 4.12 4.12h0a4.12 4.12 0 0 1-4.12 4.11z" fill="#ffc757"/><path d="M152.76 310.39s1.35-3.3 7-2.71 6.34 1.63 7.12 4.4 2.87 5.69 4.19 6.27 6.22 3.58 10.13 4 4.45 2.8 3.64 3.92-15.41 2.7-18.66 2.42c0 0-11 .32-13.62-.41s.03-16.8.2-17.89z" class="x"/><path d="M154.25,286.71l-1.69,25.78a28.92,28.92,0,0,1,7.08,3.54c4.52,3.31,8.22-.7,8.22-.7l1-16.22Z" class="t"/><path d="M187 241.29l-16.66 71.57s-8.64 1.23-19.13-3.7l9.87-71.58c.61-4.32 24.67 0 25.92 3.71z" class="r"/><g class="t"><path d="M119.46,56.11s6.83,1.27,11.33,11.35,3.41,32.18,1,34.93-10.14,2.28-21.08-.54c-11.55-3-16.15-14.48-18.68-22.1C87.21,65.17,99.11,49,119.46,56.11Z"/><path d="M100.47 115.06l3.93-18.84s10.13-3.7 17 2.76l2.35 2.87.8 12a68.91 68.91 0 0 1-24.08 1.21z"/></g><path d="M100.25 231a170.75 170.75 0 0 0 48.19 5.56c26.14-.89 29.6-8.31 30.42-15.38s-19.52-11.36-28.37-13.69-39.1-11-47.28-2.2-10.08 19.63-2.96 25.71zm113.59 79.39s1.35-3.3 7-2.71 6.34 1.63 7.12 4.4 2.87 5.69 4.2 6.27 6.22 3.58 10.12 4 4.46 2.8 3.65 3.92-15.41 2.7-18.66 2.42c0 0-11 .32-13.62-.41s.03-16.8.19-17.89z" class="x"/><path d="M207.35,288.59l6.17,25.09s4.94-1.23,7.82,1.24,8.22.82,8.22.82L225,296Z" class="t"/><path d="M156.34,204.68c1.24,0,43.19,14,51.42,20.15,8.23,6.58,21.39,79.91,22.21,81.55s-11.93,6.17-20.15,4.94c-.41-1.65-19.75-63.45-19.75-67.57,0,0-32.91-1.64-46.89-4.11s-23.45-2.88-29.21-18.1,28-16.45,28-16.45Z" class="r"/><path d="M228.12 150.58s8-.2 8.64.62 3.5 8.23.82 11.31l-2.26 1.65h-7zM99.06 112.33l2.16-5.56s13-4 24.07.93a22.12 22.12 0 0 1 4.31 7.1z" class="s"/><g class="r"><path d="M96.28 112.94s1.65-2.87 4.53-3.29 16-2.05 24.68.42a14.82 14.82 0 0 1 4.94 2.87s12.34 4.12 16.45 6.59 5.35 21.39 6.17 27.56-1.64 12.75-1.64 12.75 9.87 40.31 9.87 46.07-3.29 12.34-14.81 16.45-42.78 2.47-53.48-4.11c-3.29-6.58-8.22-84.74-9-92.14s12.29-13.17 12.29-13.17z"/><path d="M140.09 117.88s3.09-1.85 10.49 3.09 27.77 23.44 30.24 24.68 50 3.7 50 3.7 6.78 8.64-.62 15.42c0 0-45.87 1.86-54.5 1.24s-37.44-17.28-37.44-17.28-11.74-17.27 1.83-30.85z"/></g><g stroke="#1b2048" stroke-width=".83" class="o p"><path d="M130.2,145.11s38.47,20.19,43,20.83,21.48,0,21.48,0"/><path d="M182.13 150.24s1.29 7-3.2 11.22m6.07-13.15s3.85 6.09 1.92 10.58m-57.04-21.8s-3.2-11.22 8-18.59m-49.35 8.02s-2.24 19.87-2.24 29.17m13.78-42.32s14.75-1.28 26.93 0m69.56 129.18s7.05-2.24 9.62-13.14m-4.81 14.11s4.16-1.29 6.09-7.06m-31.74 19.56l-10.58 52.89"/></g><path d="M129.3 69.44a9.52 9.52 0 0 1-3.71 9.26l.31 6.17s1.85 5.55.62 6.17-1.54-.31-1.54-.31-4-6.48-5.25-6.79 2.78 8.64 2.78 8.64-4 6.17-11.42 7.1l1.55-2.16a15.54 15.54 0 0 1-8.64 1.85c-5.25-.31-9.26-8.37-9.26-8.37s.93 2.16 0 3.09-6.17-7.09-6.48-17.24l-1.54 3.08a59.4 59.4 0 0 1 3.09-15.11c2.77-8 15.11-13.89 21.9-13.89s13.58.62 15.43 0 .92 4.63.92 4.63a20.93 20.93 0 0 0 1.24-4c1.23-.92 3.08 6.48 2.46 9.26l-.61 2.77s2.16-2.77 2.46-4.32c1.24-.27.93 6.47-4.31 10.17z" class="x"/><path d="M124.82 84.82s-1.25-4.14-4.67-2 1.44 11.89 4.3 11 1.12-7.43.37-9z" fill="#ff634d"/><path d="M250.03 156.34l8.74-1.75 1.75-3.8m-2.06 4.01l-5 4a35.23 35.23 0 0 1-3.39 1M123.43 95.26s-1.23 4.32 6.17 6.78" stroke="#e66657" stroke-width="1.28" class="o p"/><path d="M292.09 127.75h-65.82l8.23-42.78h65.81l-8.22 42.78z" fill="#2e60be"/><path d="M205.12,99.78a2,2,0,0,0,2,2.37h71.65a2,2,0,0,0,1.95-1.62l1.05-5.48H206Z" fill="#26c6f8"/><path d="M287.42 52.94h-71.65a2 2 0 0 0-2 1.61L206 95.05h75.7l7.65-39.75a2 2 0 0 0-1.93-2.36z" class="y"/><path d="M238.44 102.18l1.52-4.46s2.16-11.3-7.46-8.4a15.8 15.8 0 0 0-4.91 7.81l-1.64 5.05z" class="z"/><path d="M258.38,102.18c-.18-5.57-.53-10-1.13-11.24-1.77-3.24-9-6.19-9-6.19l-9.87,1.47s-4.12,1.18-5.45,4.13a104.26,104.26,0,0,0-2.67,11.83Z" fill="#dce4ff"/><g class="t"><path d="M240.08,78.06a37.78,37.78,0,0,1-1.91,7.64s-.36,2.51,4.89,1.43,4.54-3.69,4.54-3.69V73.05Z"/><path d="M232.71 67.15s0 9.87 2.89 14.63c1.93 2 8.53-1.15 11.3-5.39s2.72-10.63.53-14.19-9.43-2.48-11.55-1.2-3.29 4.57-3.17 6.15z"/></g><path d="M246 72.72s1.86-2.86 3.11-1.16-3.07 5.21-3.4 3.88a4.77 4.77 0 0 1 .29-2.72z" fill="#fba894"/><path d="M232.71 67.15s-3.47-3.05.71-7c2.39-1.79 3.58-.47 6.09-.95s7 0 8.71 2.62 1.07 8.72.59 9.31-1.91 1-1.91 2-.23 1.91-.59 1.91S246 73.29 246 72a20.52 20.52 0 0 0-.84-5.61c-.59-1.79-3.34-1.67-4.41-1.43s-1.84 2.97-8.04 2.19z" fill="#713336"/><path d="M245.71,70.11l.2-.09h0Z" fill="#505e83" opacity=".53"/><path d="M245.91 70c0 .2.64 5.92-1.62 7.51s-2.46-.44-4.33-.74-3.39-.19-4.22 1-.59 1.77-1.28 1.43a4.82 4.82 0 0 0 2.46 3.44c1.57.63 5.3-1.33 7-2.8s2.7-2.41 3-3.69.15-3.73.49-5.45c.17-1.25-1.02-.88-1.5-.7zm-8.6 10.55c-2.26-.49-2-2.25.35-3 0 0 2.45-1.13 3.29.59.34 1.16-1.38 2.93-3.64 2.43z" fill="#713336"/><path d="M247.6 82.69a12 12 0 0 1-7.59 4c-1-.37-1.47-2.14-1.47-2.14l-.74 1.11a8.29 8.29 0 0 0 0 3.09c.44.07 2.07-1 2.07-1s1.1 1.55 1.91 1.84 6-3.17 6.48-4.86a4.08 4.08 0 0 0-.66-2.04z" class="q"/><g class="z"><path d="M259.13 102.18c-.26-5.49-.59-9.69-.9-10.56-1.17-2.75-5.6-6.28-10-6.87 0 0-1.64 7.58-3.25 17.43zm-25.43 0c2.32-9.83 4.1-15.66 4.1-15.66a10.33 10.33 0 0 0-5.3 2.8c-.88 1.76-2.25 6.81-3.66 12.86z"/><path d="M258.24,102.18c.17-5.26-.13-10.12-1-11.24-2.8-2.36-5.74-2.21-7.22.44-.8,1.45-1.87,6.51-2.68,10.8Z"/></g><path d="M239.87,87.77c-.84,3.4-1.53,6.84-2.16,10.29" stroke="#87b8eb" stroke-width=".36" class="o p"/><g fill="#6787ff"><ellipse cx="285.29" cy="50.94" rx="16.77" ry="13.08" transform="matrix(.749534 -.661966 .661966 .749534 37.72 201.59)"/><path d="M303.11 66.86a5.55 5.55 0 0 1-5.07 4 3.06 3.06 0 0 1-3-4 5.55 5.55 0 0 1 5.07-4.06 3.07 3.07 0 0 1 3 4.06z"/></g><path d="M281.47 58.47a1.43 1.43 0 0 1-1.16-.53l-3.83-5.1a2 2 0 0 1 .65-2.58 1.81 1.81 0 0 1 2.57 0l2.86 3.81 10.23-8.18a1.81 1.81 0 0 1 2.57 0 2 2 0 0 1-.64 2.58l-11.83 9.47a2.37 2.37 0 0 1-1.42.53z" class="q"/><path d="M176.44 26.25h-4.85a1.67 1.67 0 0 1-1.65-2.2l1.21-4.85a3 3 0 0 1 2.75-2.2h4.84a1.67 1.67 0 0 1 1.66 2.2l-1.21 4.85a3 3 0 0 1-2.75 2.2z" fill="#bfd9ff"/><path d="M172.9 40.45h-4.85a1.66 1.66 0 0 1-1.65-2.2l1.2-4.84a3 3 0 0 1 2.76-2.21h4.84a1.66 1.66 0 0 1 1.65 2.21l-1.2 4.84a3 3 0 0 1-2.75 2.2z" stroke="#a9a7e7" stroke-width=".75" class="o p"/><path d="M188.31 40.45h-4.84a1.66 1.66 0 0 1-1.66-2.2l1.19-4.84a3 3 0 0 1 2.75-2.21h4.85a1.67 1.67 0 0 1 1.65 2.21l-1.21 4.84a3 3 0 0 1-2.73 2.2z" class="u"/><path d="M203.73 40.45h-4.85a1.66 1.66 0 0 1-1.65-2.2l1.21-4.84a3 3 0 0 1 2.75-2.21H206a1.67 1.67 0 0 1 1.66 2.21l-1.21 4.84a3 3 0 0 1-2.72 2.2z" class="q"/><path d="M169.27,55h-4.84a1.67,1.67,0,0,1-1.66-2.2L164,47.94a3,3,0,0,1,2.75-2.2h4.85a1.67,1.67,0,0,1,1.65,2.2L172,52.79A3,3,0,0,1,169.27,55Z" class="u"/><path d="M165.4 70.52h-4.85a1.67 1.67 0 0 1-1.65-2.21l1.21-4.84a3 3 0 0 1 2.75-2.2h4.85a1.66 1.66 0 0 1 1.65 2.2l-1.21 4.84a3 3 0 0 1-2.75 2.21z" class="q"/><path d="M184.69 55h-4.85a1.67 1.67 0 0 1-1.65-2.2l1.21-4.85a3 3 0 0 1 2.75-2.2H187a1.67 1.67 0 0 1 1.66 2.2l-1.21 4.85a3 3 0 0 1-2.76 2.2z" fill="#edf4ff"/><path d="M177.93 82.08h-4.84a1.66 1.66 0 0 1-1.65-2.2l1.2-4.85a3 3 0 0 1 2.75-2.2h4.85a1.66 1.66 0 0 1 1.65 2.2l-1.21 4.85a3 3 0 0 1-2.75 2.2z" stroke="#a9a7e7" stroke-width=".75" class="o p"/><g class="y"><path d="M323.69 63.26h-1.78a.61.61 0 0 1-.6-.81l.44-1.78a1.1 1.1 0 0 1 1-.81h1.78a.61.61 0 0 1 .6.81l-.44 1.78a1.11 1.11 0 0 1-1 .81z"/><use xlink:href="#B"/><path d="M328.05 68.47h-1.78a.62.62 0 0 1-.61-.81l.45-1.78a1.1 1.1 0 0 1 1-.8h1.78a.6.6 0 0 1 .6.8l-.44 1.78a1.1 1.1 0 0 1-1 .81zm5.66 0h-1.78a.61.61 0 0 1-.61-.81l.45-1.78a1.1 1.1 0 0 1 1-.8h1.78a.61.61 0 0 1 .6.8l-.44 1.78a1.1 1.1 0 0 1-1 .81zm-12.65 5.34h-1.78a.61.61 0 0 1-.6-.81l.44-1.78a1.1 1.1 0 0 1 1-.81h1.78a.61.61 0 0 1 .6.81l-.43 1.78a1.1 1.1 0 0 1-1.01.81zm-1.42 5.7h-1.78a.61.61 0 0 1-.61-.81l.45-1.78a1.1 1.1 0 0 1 1-.81h1.78a.61.61 0 0 1 .6.81l-.44 1.78a1.1 1.1 0 0 1-1 .81zm7.08-5.7h-1.78a.61.61 0 0 1-.61-.81l.45-1.78a1.1 1.1 0 0 1 1-.81h1.78a.61.61 0 0 1 .6.81l-.43 1.78a1.1 1.1 0 0 1-1.01.81z"/><use xlink:href="#B" x="1.85" y="15.28"/></g><path d="M323.12 130.65h-58.48a1 1 0 0 1-.91-1.18l5.46-21a.94.94 0 0 1 .91-.7h58.48a.94.94 0 0 1 .91 1.17L324 130a.94.94 0 0 1-.88.65z" fill="#bfd9ff" opacity=".9"/><g class="o"><g stroke="#a9c2ff" stroke-linecap="round" stroke-linejoin="round" stroke-width="1.08"><path d="M272.66 112.28h20.35m-21.91 9.4h20.35m-11.8-3.55H300"/><path d="M272.14 115.41h6.11m-6.94 2.72h6.1m18.84-5.85h7.25"/></g><path d="M299.8 126.08H289a.08.08 0 0 1-.08-.1l.48-1.87a.1.1 0 0 1 .09-.06h10.82a.09.09 0 0 1 .09.11l-.49 1.86a.08.08 0 0 1-.11.06zm-13.46 0h-10.83a.08.08 0 0 1-.08-.1l.48-1.87a.1.1 0 0 1 .08-.06h10.83a.08.08 0 0 1 .08.11l-.48 1.86a.08.08 0 0 1-.08.06z" stroke-width=".36" stroke="#84aee5" class="p"/></g><path d="M318.83 123.38c-.55-.74-2.8-1.28-3.42-2a2.33 2.33 0 0 1-.25-1.67 2.15 2.15 0 0 0 .52-.42 8.83 8.83 0 0 0 .61-1.07.37.37 0 0 0 .26.11c.29 0 1.42-1.54 1.13-1.9-.17-.2-.44 0-.64.16l.51-1.2h0l.08-.26a2.46 2.46 0 0 0-2.44-3.25 4.44 4.44 0 0 0-4.05 3.25 2.38 2.38 0 0 0-.05.26h0l-.1 1.2c-.1-.18-.28-.36-.55-.16-.47.36-.11 1.89.18 1.9a.65.65 0 0 0 .32-.11 6.37 6.37 0 0 0 .07 1.07 1.25 1.25 0 0 0 .42.51 3.64 3.64 0 0 1-1.05 1.58c-1 .74-3.51 1.28-4.43 2a8.63 8.63 0 0 0-1.71 3h14.84c.03-.38.25-2.33-.25-3z" class="z"/><path d="M243.83 123.17h-48c-4.22 0-6.78-3.42-5.73-7.63h0a10.43 10.43 0 0 1 9.53-7.63h48c4.22 0 6.78 3.42 5.73 7.63h0a10.43 10.43 0 0 1-9.53 7.63z" class="q"/><path d="M200.94 117.53l-2.06 1c-.2.09-.36-.06-.28-.25l.85-2a.22.22 0 0 0 0-.21l-1.12-1.43c-.1-.14 0-.37.23-.4l2.11-.3a.35.35 0 0 0 .21-.12l1.37-1.85c.12-.17.37-.17.41 0l.45 1.85a.19.19 0 0 0 .15.12l2 .3c.18 0 .2.26 0 .4l-1.85 1.36a.33.33 0 0 0-.12.21l-.16 2a.3.3 0 0 1-.4.25l-1.58-1a.26.26 0 0 0-.21.07zm10.13 0l-2.06 1c-.19.09-.36-.06-.28-.25l.85-2a.2.2 0 0 0 0-.21l-1.12-1.43c-.1-.14 0-.37.23-.4l2.11-.3a.35.35 0 0 0 .21-.12l1.37-1.85c.13-.17.37-.17.42 0l.45 1.85a.16.16 0 0 0 .14.12l2 .3c.18 0 .2.26 0 .4l-1.85 1.36a.33.33 0 0 0-.12.21l-.16 2a.3.3 0 0 1-.4.25l-1.58-1a.26.26 0 0 0-.21.07zm10.13 0l-2.06 1c-.19.09-.36-.06-.28-.25l.86-2a.22.22 0 0 0 0-.21l-1.11-1.43c-.11-.14 0-.37.22-.4l2.11-.3a.35.35 0 0 0 .21-.12l1.37-1.85c.13-.17.37-.17.42 0l.45 1.85a.16.16 0 0 0 .14.12l2 .3c.19 0 .2.26 0 .4l-1.86 1.36a.33.33 0 0 0-.12.21l-.15 2c0 .19-.26.34-.4.25l-1.59-1a.26.26 0 0 0-.21.07zm10.13 0l-2.06 1c-.19.09-.36-.06-.28-.25l.86-2a.22.22 0 0 0 0-.21l-1.11-1.43c-.11-.14 0-.37.23-.4l2.1-.3a.35.35 0 0 0 .21-.12l1.37-1.85c.13-.17.38-.17.42 0l.45 1.85a.16.16 0 0 0 .14.12l2 .3c.19 0 .2.26 0 .4L233.8 116a.33.33 0 0 0-.12.21l-.15 2c0 .19-.25.34-.4.25l-1.58-1a.28.28 0 0 0-.22.07z" fill="#ffa402"/><path d="M241.46 117.53l-2.06 1c-.19.09-.36-.06-.28-.25l.86-2a.22.22 0 0 0 0-.21l-1.11-1.43c-.11-.14 0-.37.23-.4l2.1-.3a.35.35 0 0 0 .21-.12l1.37-1.85c.13-.17.38-.17.42 0l.45 1.85a.17.17 0 0 0 .14.12l2 .3c.19 0 .21.26 0 .4l-1.86 1.36a.31.31 0 0 0-.11.21l-.16 2c0 .19-.25.34-.4.25l-1.58-1a.28.28 0 0 0-.22.07z" fill="#c2d4d9"/><ellipse cx="125.84" cy="88.21" rx="3.97" ry="5.53" class="r"/><path d="M126.44,88.69S137.5,101,137.5,102.87s-3.61,1.69-3.61,1.69" stroke="#202f7c" stroke-width="1.1" class="o p"/><path d="M134.73 104.56a1.44 1.44 0 1 1-1.44-1.45 1.44 1.44 0 0 1 1.44 1.45z" class="r"/><path d="M106.77,248.07c3.93,6.78,16.25,11.73,30.86,11.73s26.92-5,30.85-11.73Z" class="v"/><path d="M190.07 213.31l-7.4 34.15h-4.53l4.12-33.32 7.81-.83z" class="w"/><path d="M137.37 208h58.74a7.54 7.54 0 0 1 7.54 7.54v.69a0 0 0 0 1 0 0h-66.28a0 0 0 0 1 0 0V208a0 0 0 0 1 0 0z" fill="#7a82cc"/><g class="w"><path d="M83.12,243.75l-16-77.15a4.93,4.93,0,0,1,4.83-5.94H125a6.17,6.17,0,0,1,6,4.92l16.25,78.17"/><path d="M192.14,252.22H91.33A7.67,7.67,0,0,1,84,246.71l-.86-3h109Z"/></g><path d="M134.54 256.09h8.02v71.57h-8.02z" class="s"/><path d="M142.56 269.36l-8.02 6.48v-19.75h8.02v13.27z" class="v"/><path d="M142.31 317h-2.93-.73-2.93l-30.07 11.94h66.73L142.31 317z" class="s"/><path d="M74.15 165.94h47.72m4.94 5.53l8.15 41.02m1.45 7.27l1.75 11.93" stroke="#4f57a0" class="o p"/><path d="M358.85,97H320.43a3.23,3.23,0,0,1-3.19-3.73l.29-1.84a3.23,3.23,0,0,1,3.19-2.73h38.42a3.22,3.22,0,0,1,3.18,3.73L362,94.26A3.22,3.22,0,0,1,358.85,97Z" class="y"/><path d="M322.04 92.91h33.16" stroke="#fff" stroke-width="2" class="o p"/><path d="M218.9 49.27h-10.47a11.75 11.75 0 0 0-10.94 9h0c-1.06 5 2.12 9 7.1 9h2.28a8.38 8.38 0 0 0 8.54 5.24 11.5 11.5 0 0 1-1.41-5.2h1a11.75 11.75 0 0 0 10.93-9h0c1.13-5-2.05-9.04-7.03-9.04z" fill="#00acff"/><path d="M203.97 56.54h9.89m-10.72 3.93h16.07" stroke="#fff" stroke-width="2" class="o p"/><defs ><path id="B" d="M322.39 68.47h-1.78a.61.61 0 0 1-.6-.81l.44-1.78a1.1 1.1 0 0 1 1-.8h1.78a.6.6 0 0 1 .6.8l-.44 1.78a1.1 1.1 0 0 1-1 .81z"/></defs></svg>