<svg xmlns="http://www.w3.org/2000/svg" viewBox="0 0 416 337" xmlns:v="https://vecta.io/nano"><style><![CDATA[.U{fill:#fff}.V{fill:none}.W{stroke-miterlimit:10}.X{fill:#80d6ff}.Y{fill:#548ed4}.Z{fill:#0056bf}.a{fill:#3b7dce}.b{stroke:#fff}.c{stroke-width:.84}.d{stroke:#1464c4}.e{fill:#73a2dc}.f{fill:#4080cf}.g{stroke-linecap:round}.h{stroke-linejoin:round}.i{stroke-width:.75}.j{fill:#00acff}]]></style><path d="M0 0h416v337H0z" class="U"/><rect x="47.19" y="120.07" width="143.08" height="94.56" rx="8.73" class="Y"/><path d="M64.76 185.59h8.78v10.97h-8.78zm19.83-13.56h8.78v24.53h-8.78zm19.83-10.01h8.78v34.54h-8.78zm19.83-5.56h8.78v40.09h-8.78zm19.84-13.89h8.78v53.99h-8.78zm19.83 24.41h8.78v29.58h-8.78z" fill="#c9dcf2"/><g class="V W d"><path d="M64.76 161.46h8.78v35.1h-8.78z" stroke-width=".6"/><path d="M84.59 166.98h8.78v29.58h-8.78z" stroke-width=".55"/><path d="M104.42 147.5h8.78v49.06h-8.78z" stroke-width=".71"/><path d="M124.25 143.28h8.78v53.28h-8.78z" stroke-width=".74"/><path d="M144.09 134.23h8.78v62.33h-8.78z" stroke-width=".8"/><path d="M163.92 152.62h8.78v43.94h-8.78z" stroke-width=".67"/><path d="M55.91 196.56h125.64" stroke-width=".55"/></g><path d="M180.81 218.07h154.13a0 0 0 0 1 0 0v98.36a8.73 8.73 0 0 1-8.73 8.73H189.54a8.73 8.73 0 0 1-8.73-8.73v-98.36a0 0 0 0 1 0 0z" class="e"/><path d="M218.06 157.88h-24.71v47.77h37.51v-34.97l-12.8-12.8z" class="Z"/><path d="M216.23 155.99h-24.71v47.77h37.51v-34.97l-12.8-12.8z" class="U"/><path d="M216.23 155.99v12.8h12.8l-12.8-12.8z" class="X"/><path d="M196.18 166.59h11.92v2.2h-11.92zm0 5.75h28.2v1.1h-28.2zm0 3.88h28.2v1.1h-28.2zm0 3.88h28.2v1.1h-28.2zm0 3.88h28.2v1.1h-28.2zm0 3.89h28.2v1.1h-28.2zm0 3.88h11.92v1.1h-11.92z" class="a"/><path d="M264.75 157.88h-24.71v47.77h37.5v-34.97l-12.79-12.8z" class="Z"/><path d="M262.92 155.99h-24.71v47.77h37.5v-34.97l-12.79-12.8z" class="U"/><path d="M262.92 155.99v12.8h12.79l-12.79-12.8z" class="X"/><path d="M242.86 166.59h11.92v2.2h-11.92zm0 5.75h28.2v1.1h-28.2zm0 3.88h28.2v1.1h-28.2zm0 3.88h28.2v1.1h-28.2zm0 3.88h28.2v1.1h-28.2zm0 3.89h28.2v1.1h-28.2zm0 3.88h11.92v1.1h-11.92z" class="a"/><path d="M311.44 157.88h-24.72v47.77h37.51v-34.97l-12.79-12.8z" class="Z"/><path d="M309.61 155.99h-24.72v47.77h37.51v-34.97l-12.79-12.8z" class="U"/><path d="M309.61 155.99v12.8h12.79l-12.79-12.8z" class="X"/><path d="M289.55 166.59h11.92v2.2h-11.92zm0 5.75h28.2v1.1h-28.2zm0 3.88h28.2v1.1h-28.2zm0 3.88h28.2v1.1h-28.2zm0 3.88h28.2v1.1h-28.2zm0 3.89h28.2v1.1h-28.2zm0 3.88h11.92v1.1h-11.92z" class="a"/><rect x="194.7" y="232.97" width="129.53" height="22.37" rx="5" class="f"/><rect x="193.11" y="230.73" width="129.53" height="22.37" rx="5" class="U"/><circle cx="210.98" cy="241.91" r="7.87" transform="matrix(.916013 -.401149 .401149 .916013 -79.33 104.96)" class="X"/><path d="M223.95 237.43h88.69m-88.69 4.48h88.69m-88.69 4.49h88.69" class="V d g h i"/><rect x="194.7" y="261.55" width="129.53" height="22.37" rx="5" class="f"/><rect x="193.11" y="259.31" width="129.53" height="22.37" rx="5" class="U"/><circle cx="210.98" cy="270.49" r="7.87" transform="matrix(.916013 -.401149 .401149 .916013 -90.79 107.36)" class="X"/><path d="M223.95 266.01h88.69m-88.69 4.48h88.69m-88.69 4.49h88.69" class="V d g h i"/><rect x="194.7" y="290.13" width="129.53" height="22.37" rx="5" class="f"/><rect x="193.11" y="287.89" width="129.53" height="22.37" rx="5" class="U"/><circle cx="210.98" cy="299.07" r="7.87" transform="matrix(.916013 -.401149 .401149 .916013 -102.26 109.76)" class="X"/><path d="M223.95 294.59h88.69m-88.69 4.48h88.69m-88.69 4.48h88.69" class="V d g h i"/><rect x="296.51" y="212.85" width="49.86" height="37.58" rx="4.61" class="j"/><path d="M301.18 217.17h40.53v27.76h-40.53z" class="U"/><path d="M318.54 221.02h19.65m-19.65 3.77h19.65" stroke="#3b7dce" stroke-width=".87" class="V W"/><path d="M315.07,229.1l-1.88-6.31a4.62,4.62,0,0,0-4.41-3.29H291.45c-2.3,0-3.62,1.88-2.93,4.18l6.75,22.57a6.08,6.08,0,0,0,5.42,4.18H342.2c2.31,0,3.62-1.87,2.93-4.18L341,232.39a4.62,4.62,0,0,0-4.41-3.29Z" fill="#7ad4ff"/><rect x="172.66" y="36.73" width="154.13" height="107.09" rx="8.73" class="Z"/><circle cx="221.98" cy="90.28" r="38.78" class="U"/><path d="M260.06,82.91A38.81,38.81,0,0,0,222,51.49V90.28Z" class="j"/><path d="M260.76 90.28a39.77 39.77 0 0 0-.7-7.37L222 90.28l3.82 38.59a38.78 38.78 0 0 0 34.94-38.59z" class="Y"/><path d="M222,90.28,185.37,77.45A38.79,38.79,0,0,0,222,129.06a37.15,37.15,0,0,0,3.82-.19Z" class="e"/><path d="M185.37 77.45L222 90.28l-30-24.6a38.87 38.87 0 0 0-6.63 11.77z" class="a"/><path d="M274.55 64.23a4.22 4.22 0 1 1-4.22-4.23 4.22 4.22 0 0 1 4.22 4.23z" class="j"/><path d="M277.29 64.23h32.56" class="V W b c"/><path d="M274.55 77.26a4.22 4.22 0 1 1-4.22-4.26 4.22 4.22 0 0 1 4.22 4.26z" class="Y"/><path d="M277.29 77.26h32.56" class="V W b c"/><path d="M274.55 90.28a4.22 4.22 0 1 1-4.22-4.22 4.21 4.21 0 0 1 4.22 4.22z" class="e"/><path d="M277.29 90.28h32.56" class="V W b c"/><path d="M274.55 103.3a4.22 4.22 0 1 1-4.22-4.22 4.22 4.22 0 0 1 4.22 4.22z" class="a"/><path d="M277.29 103.3h32.56" class="V W b c"/><path d="M274.55 116.32a4.22 4.22 0 1 1-4.22-4.22 4.22 4.22 0 0 1 4.22 4.22z" class="U"/><path d="M277.29 116.32h32.56" class="V W b c"/><path d="M322.086 48.181l5.445-5.445 29.642 29.642-5.445 5.445z" class="Y"/><path d="M322.08 48.18l3 3a21.2 21.2 0 0 0 6.46-4.42l-4-4zm10.966 10.961l5.445-5.445 18.682 18.682-5.445 5.445z" class="Z"/><circle cx="311.23" cy="31.88" r="21.25" class="Y"/><circle cx="311.23" cy="31.88" r="15.93" class="U"/><path d="M302.33 40.78a13.28 13.28 0 0 1-1.11-1.27m-1.61-2.78A12.6 12.6 0 0 1 302.33 23" stroke="#c9dcf2" stroke-width="1.75" class="V W"/></svg>