<svg xmlns="http://www.w3.org/2000/svg" xmlns:xlink="http://www.w3.org/1999/xlink" viewBox="0 0 416 337" xmlns:v="https://vecta.io/nano"><style><![CDATA[.A{isolation:isolate}.F,.C,.O,.Q{mix-blend-mode:multiply}.T{fill:#0056bf}.U{fill:#216cc7}.V{fill:#00acff}.W{fill:#7ad4ff}.X{fill:#a8e3ff}.Y{fill:#b3ccec}.Z{fill:#3dc0ff}.a{fill:#8ab1e2}.b{stroke-miterlimit:10}]]></style><g class="A"><path d="M0 0h416v337H0z" fill="#fff"/><path class="C" d="M308.89,157.4,325,69.46c0-2.7-2.82-4.89-6.3-4.89H102.05c-3.47,0-6.29,2.19-6.29,4.89l13.79,87.94h.39a6.32,6.32,0,0,0-.56,2.58v97.23a6,6,0,0,0,5.9,6.11h188a6,6,0,0,0,5.9-6.11V160a6.31,6.31,0,0,0-.55-2.58Z" fill="#70a0db"/><rect x="106.19" y="141.73" width="206.87" height="109.45" rx="6.11" class="T"/><g fill="#a6c4e9"><rect x="120.79" y="159.61" width="12.79" height="10.78" rx="1.5"/><use xlink:href="#B"/><use xlink:href="#B" x="16.29"/><rect x="169.67" y="159.61" width="12.79" height="10.78" rx="1.5"/><rect x="185.97" y="159.61" width="12.79" height="10.78" rx="1.5"/><rect x="202.27" y="159.61" width="12.79" height="10.78" rx="1.5"/><rect x="218.56" y="159.61" width="12.79" height="10.78" rx="1.5"/><rect x="234.86" y="159.61" width="12.79" height="10.78" rx="1.5"/><path d="M252.66 159.61h9.78a1.51 1.51 0 0 1 1.51 1.51v7.77a1.5 1.5 0 0 1-1.5 1.5h-9.78a1.5 1.5 0 0 1-1.5-1.5v-7.77a1.5 1.5 0 0 1 1.49-1.51z"/><rect x="267.45" y="159.61" width="12.79" height="10.78" rx="1.5"/><rect x="283.75" y="159.61" width="12.79" height="10.78" rx="1.5"/><rect x="121.06" y="175.32" width="12.79" height="10.78" rx="1.5"/><rect x="137.35" y="175.32" width="12.79" height="10.78" rx="1.5"/><use xlink:href="#B" x="16.56" y="15.71"/><rect x="169.95" y="175.32" width="12.79" height="10.78" rx="1.5"/><rect x="186.24" y="175.32" width="12.79" height="10.78" rx="1.5"/><rect x="202.54" y="175.32" width="12.79" height="10.78" rx="1.5"/><rect x="218.83" y="175.32" width="12.79" height="10.78" rx="1.5"/><rect x="235.13" y="175.32" width="12.79" height="10.78" rx="1.5"/><rect x="251.42" y="175.32" width="12.79" height="10.78" rx="1.5"/><rect x="267.35" y="175.44" width="28.91" height="10.53" rx="1.5"/><rect x="121.06" y="191.02" width="12.79" height="10.78" rx="1.5"/><rect x="137.35" y="191.02" width="12.79" height="10.78" rx="1.5"/><use xlink:href="#B" x="16.56" y="31.39"/><rect x="169.95" y="191.02" width="12.79" height="10.78" rx="1.5"/><rect x="186.24" y="191.02" width="12.79" height="10.78" rx="1.5"/><rect x="202.54" y="191.02" width="12.79" height="10.78" rx="1.5"/><rect x="218.83" y="191.02" width="12.79" height="10.78" rx="1.5"/><rect x="235.13" y="191.02" width="12.79" height="10.78" rx="1.5"/><rect x="251.42" y="191.02" width="12.79" height="10.78" rx="1.5"/><rect x="267.35" y="191.15" width="28.91" height="10.53" rx="1.5"/><rect x="121.06" y="206.73" width="12.79" height="10.78" rx="1.5"/><rect x="137.35" y="206.73" width="12.79" height="10.78" rx="1.5"/><rect x="235.13" y="206.73" width="12.79" height="10.78" rx="1.5"/><rect x="251.42" y="206.73" width="12.79" height="10.78" rx="1.5"/><rect x="267.35" y="206.86" width="28.91" height="10.53" rx="1.5"/><path d="M155.86 206.87h74a1.5 1.5 0 0 1 1.5 1.5v7a1.5 1.5 0 0 1-1.5 1.5h-74a1.51 1.51 0 0 1-1.51-1.51v-7a1.5 1.5 0 0 1 1.51-1.49z"/><rect x="169.97" y="223.35" width="77.38" height="17.31" rx="1.53"/></g><path class="F Y" d="M307 141.73h-98.94v109.45H307a6.1 6.1 0 0 0 6.11-6.11v-97.23a6.1 6.1 0 0 0-6.11-6.11z"/><path d="M312.8,145.26l16.66-87.94c0-2.7-2.92-4.89-6.52-4.89H98.6c-3.6,0-6.52,2.19-6.52,4.89l14.28,87.94Z" class="U"/><path d="M313,59.83c3.23,0,5.84,1.6,5.84,3.58l-16.66,70.45c0,2-2.62,3.57-5.84,3.57H122.84c-3.23,0-5.85-1.59-5.85-3.57L102.71,63.41c0-2,2.62-3.58,5.85-3.58Z" fill="#fff"/><path class="F Y" d="M322.94 52.43H207.53v92.83H312.8l16.66-87.94c0-2.7-2.92-4.89-6.52-4.89z"/><path d="M289.44,79.05c-.5-6.26-8.44-11.25-18.12-11.25h-.62v4h.62c6.29,0,11.46,3.18,11.94,7.22h-1.7l4.57,3.32,4.7-3.32Z" class="V"/><path d="M275.37,70l-5.62-3.37v1.19c-9.19.52-16.45,5.53-16.59,11.65h6.17c.13-3.9,4.65-7.11,10.44-7.59v1.43Z" class="W"/><path d="M289.46 80l-3.33 2.38-2.84-2.08c-.2 2.95-2.81 4.83-6.51 6.35h0a17.22 17.22 0 0 1-5.46.86c-6.49 0-11.79-3.39-12-7.6h2.17l-5.06-3.65-5.16 3.68h1.89c.2 6.43 8.26 11.63 18.14 11.63a25 25 0 0 0 10.45-2.18l.15-.07.18-.08h0c4.32-2.09 7.19-5.6 7.38-9.24z" class="T"/><path d="M136.85 110.88h7.78v18.06h-7.78z" class="V"/><path d="M146.37 117.29h7.79v11.95h-7.79z" class="W"/><path d="M155.89 113.4h7.78v15.84h-7.78z" class="X"/><path d="M165.42 123.26h7.78v5.98h-7.78z" class="Z"/><path d="M136.22 109.1l7.83-2.56 6.62 7.63 9.09-5.51 9.55 7.69 7.13-4.93" fill="none" stroke="#0056bf" stroke-width="1.22" class="b"/><path d="M136.8 109.67a1.83 1.83 0 0 1-1.77-.17c-.42-.34-.3-.83.27-1.08a1.83 1.83 0 0 1 1.77.17c.42.34.3.83-.27 1.08zm23.61-.33a1.86 1.86 0 0 1-1.78-.17c-.41-.34-.29-.83.28-1.08a1.83 1.83 0 0 1 1.77.16c.42.35.32.84-.27 1.09zm-8.82 5.49a1.81 1.81 0 0 1-1.77-.17c-.41-.34-.29-.83.27-1.08a1.86 1.86 0 0 1 1.78.17c.41.34.29.83-.28 1.08zm-6.94-7.58a1.84 1.84 0 0 1-1.77-.17c-.42-.34-.29-.83.27-1.08a1.86 1.86 0 0 1 1.78.17c.41.34.29.83-.28 1.08zm25.41 9.75a1.86 1.86 0 0 1-1.78-.17c-.41-.35-.29-.83.28-1.09a1.86 1.86 0 0 1 1.77.17c.42.33.29.82-.27 1.09zm7-5a1.84 1.84 0 0 1-1.77-.17c-.41-.34-.29-.83.27-1.08a1.85 1.85 0 0 1 1.78.16c.41.3.29.79-.28 1.09z" class="X"/><path d="M180 128.95l-4.17-1.88.01 1.28h-42.61v-24.8h2.06l-3.2-2.62-3.17 2.63h1.94v26.24h44.98l.01 1.06 4.15-1.91z" class="T"/><path d="M127.61 88.78h106.4v1.99h-106.4zm0-6.6h106.4v1.99h-106.4zm0-6.59h106.4v1.99h-106.4zm62.83 32h103.58v1.98H190.44zm0 6.55h103.58v1.98H190.44zm0 6.56h103.58v1.98H190.44zm0 6.56h103.58v1.98H190.44z" class="a"/><path class="C" d="M351.74 196.17l-32.42-16.27 2.9-5.8h0l.74-1.46-5.83-2.92.07-.06c.27-.18.67-.41 1.13-.67 1.86-1.05 4.65-2.63 4.87-5.08.14-1.5-.74-3-2.6-4.6a14.73 14.73 0 0 0-2.47-1.51 22 22 0 0 0-3.09-1.29c-2.33-.71-4.13-.57-5.32.41-2 1.65-1.69 5.12-1.48 7.19 0 .3.05.57.07.79s0 .26 0 .39l-6-3-3.64 7.26-28.7-14.4L219.36 256l39.7 19.91h0L301 297h0l.11.05zm-42-32.2c-.18-1.78-.47-4.76.94-5.91.79-.65 2.13-.69 4-.13a21.05 21.05 0 0 1 2.86 1.19h0l.69.35.32.19.28.16a7.42 7.42 0 0 1 .89.61c1.47 1.23 2.17 2.35 2.08 3.34-.15 1.67-2.54 3-4.12 3.92l-1.25.75a6.82 6.82 0 0 0-.68.55l-2.52-1.27h0l-3.52-1.72a6 6 0 0 0 .07-1.19l-.07-.81zm-118.53 46.34L164 206.64h0l-4.09-.55L140.08 157l-30.46 12.28-2.22-5.49h0l-.58-1.45-5.82 2.31v-.09c0-.31.13-.74.23-1.24.42-2 1.06-5-.57-6.74-1-1.05-2.67-1.4-5-1a13.82 13.82 0 0 0-2.65.82 21.85 21.85 0 0 0-2.89 1.4c-2 1.24-3 2.62-3.09 4.1-.09 2.51 2.62 4.46 4.24 5.64l.62.45a3.2 3.2 0 0 1 .27.25l-6 2.42 2.84 6.91-30.44 12.28 40.53 100.47 41.23-16.63h0l6-2.42 8.81 1.18h0l27.24 3.67a2.94 2.94 0 0 0 3.37-2.43l8.1-60.14a2.94 2.94 0 0 0-2.63-3.24zm-98.4-43.48l-.66-.48c-1.39-1-3.72-2.69-3.65-4.44 0-1 .85-2 2.42-2.94a19.77 19.77 0 0 1 2.67-1.29 12.57 12.57 0 0 1 2.34-.74c1.81-.28 3.07-.07 3.72.62 1.12 1.17.57 3.75.21 5.46l-.25 1.38a7.56 7.56 0 0 0 0 .83h0l-5.95 2.4a5.57 5.57 0 0 0-.85-.8z" fill="#70a0db"/><path d="M54.786 185.208l81.507-32.882 40.529 100.463-81.507 32.882z" fill="#d1e1f3"/><path d="M100 191.48v-.13a13.48 13.48 0 0 0-25.88 3.41l13.37 1.79z" class="Z"/><path d="M87.79 196.16l-12.85 5.19v.08a13.47 13.47 0 0 0 17.54 7.46l.36-.15z" class="V"/><path d="M99.93 191.27l-12.52 5 5.08 12.58h0a13.47 13.47 0 0 0 7.51-17.5z" class="W"/><path d="M87.39,196.34l12.55-5.06a13.17,13.17,0,0,0-10-8.13Z" class="X"/><path d="M74.12,194.58a13.39,13.39,0,0,0,.82,6.78l12.5-5Z" class="T"/><path d="M115,195.82a13.72,13.72,0,0,0,10.73-25.25Z" class="Z"/><path d="M125.72 170.58h-.08a13.72 13.72 0 1 0-10.74 25.25h.09z" class="V"/><path d="M115,195.82l5.38-12.65L107,186.75a13.69,13.69,0,0,0,7.87,9Z" class="W"/><path d="M120.37,183.14,115,195.82a13.8,13.8,0,0,0,13-1.35Z" class="X"/><g class="a"><use xlink:href="#C"/><use xlink:href="#C" x="2.979" y="7.388"/><use xlink:href="#C" x="5.957" y="14.777"/><use xlink:href="#C" x="8.935" y="22.165"/><use xlink:href="#C" x="11.924" y="29.553"/><use xlink:href="#C" x="14.902" y="36.942"/><use xlink:href="#C" x="17.88" y="44.33"/><use xlink:href="#C" x="20.859" y="51.729"/></g><path class="O" d="M96.012 168.575l40.276-16.248 40.529 100.463-40.276 16.248z" fill="#dee9f7"/><path d="M82.434 165.973l20.606-8.313 4.875 12.084-20.606 8.313z" fill="#6196d7"/><path d="M82.437 165.987l20.606-8.313.587 1.456-20.606 8.313z" class="U"/><path d="M88.15,163.32c3.31,2.56,3,11.09,2.82,13.24l1.46-.59c.15-3.07.18-11-3.41-13.77l-.65-.49c-1.4-1-3.72-2.68-3.66-4.43,0-1,.85-2,2.42-2.94a19.77,19.77,0,0,1,2.67-1.29,11.85,11.85,0,0,1,2.34-.74c1.82-.28,3.07-.08,3.72.62,1.12,1.17.57,3.75.21,5.46-.11.54-.21,1-.25,1.37-.45,3.89,2.84,8.9,6.11,12.38l1.42-.57c-4-4.11-6.46-8.74-6.12-11.64,0-.31.13-.75.23-1.24.42-2,1.06-5-.57-6.74-1-1-2.67-1.4-5-1a13.82,13.82,0,0,0-2.65.82,21.65,21.65,0,0,0-2.88,1.4c-2,1.24-3,2.62-3.1,4.1-.09,2.5,2.62,4.46,4.25,5.63Z" class="T"/><path d="M86.735 176.626l20.606-8.313.587 1.456-20.606 8.313z" class="U"/><path class="Q" d="M107.32 168.32L103 157.68 97.22 160a.28.28 0 0 0 0-.09c0-.31.13-.75.23-1.24.42-2 1.06-5-.57-6.74-1-1-2.67-1.4-5-1a13.26 13.26 0 0 0-2.64.82l.53 1.31a11.44 11.44 0 0 1 2.33-.73c1.82-.28 3.07-.08 3.72.62 1.12 1.17.57 3.75.21 5.46l-.25 1.37a7.87 7.87 0 0 0 0 .84l-2.51 1 4.87 12.09 9.77-3.94-.59-1.45z" fill="#c2d6f0"/><path d="M228.631 253.035L279.213 152.2l81.804 41.036-50.582 100.834z" fill="#d1e1f3"/><path d="M268.822 193.734l1.269-2.53 65.107 32.66-1.269 2.53zm4.199-8.376l1.269-2.53 29.416 14.756-1.269 2.53zm4.192-8.377l1.269-2.53 29.416 14.756-1.269 2.53zm4.197-8.358l1.269-2.53 29.416 14.756-1.269 2.53zm-16.78 33.478l1.269-2.53 65.107 32.66-1.269 2.53zm-4.201 8.367l1.269-2.53 65.107 32.66-1.269 2.53zm-4.198 8.368l1.269-2.53 65.107 32.66-1.269 2.53z" class="a"/><path d="M339,205.35a13.37,13.37,0,0,0-6.24-17.27l-.41-.19-2,4.05.42.19a8.83,8.83,0,0,1,4.21,11.19l-1.12-.56,1.33,4.84,4.76-1.79Z" class="V"/><path d="M334.25,191.65l-2-5.24-.6,1.21a13.36,13.36,0,0,0-16.77,6.23l4.05,2a8.82,8.82,0,0,1,10.69-4.19l-.71,1.44Z" class="W"/><path d="M338.49 206.31l-3.39 1.29-.82-3c-1.62 2.89-4.28 3.93-7.48 4.24h0a8.64 8.64 0 0 1-4-.93 8.81 8.81 0 0 1-4-11.58l1.42.7-1.48-5.33-5.24 2 1.24.62a13.33 13.33 0 0 0 14 18.91h.14.15 0a13.69 13.69 0 0 0 9.46-6.92z" class="T"/><path d="M261.971 261.013l9.658-19.253 5.077 2.547-9.658 19.253z" class="V"/><path d="M268.006 264.434l6.389-12.737 5.077 2.547-6.389 12.737z" class="W"/><path d="M274.216 267.544l8.47-16.885 5.077 2.547-8.47 16.885z" class="X"/><path d="M280.425 270.67l3.197-6.373 5.077 2.547-3.197 6.373z" class="Z"/><path d="M272.16 239.63l6.47-.17.23 10.31 8.88-2.91 2.11 11.32 7.28-2.92" fill="none" stroke="#0056bf" stroke-width="1.14" class="b"/><path d="M272.23 240.43a.93.93 0 1 1 .76-1.07.94.94 0 0 1-.76 1.07zm15.57 7.36a.92.92 0 1 1 .75-1.06.92.92 0 0 1-.75 1.06zm-8.69 2.98a.93.93 0 1 1 .76-1.07.93.93 0 0 1-.76 1.07zm-.47-10.36a.923.923 0 1 1-.31-1.82.923.923 0 1 1 .31 1.82zM290 259.09a.92.92 0 1 1 .76-1.07.93.93 0 0 1-.76 1.07zm7.26-3.09a.92.92 0 1 1 .74-1 .92.92 0 0 1-.74 1z" class="X"/><path d="M290.08 275.11l-1.71-3.37-.69 1.37-27.77-13.93 13.26-26.44 1.35.67-.69-3.84-3.47 1.76 1.27.64-14.03 27.97 29.32 14.71-.57 1.13 3.73-.67z" class="T"/><path class="O" d="M268.308 272.976l50.582-100.834 41.993 21.065-50.582 100.834z" fill="#dee9f7"/><path d="M305.468 171.474l6.085-12.129 20.675 10.371-6.085 12.129z" fill="#6196d7"/><path d="M310.813 160.788l.731-1.457 20.675 10.371-.731 1.457z" class="U"/><path d="M317.57 162c.27 4.35-6.63 9.95-8.41 11.32l1.47.73c2.5-2 8.71-7.42 8.41-12.15 0-.23 0-.52-.07-.84-.18-1.78-.47-4.75.94-5.91.79-.65 2.13-.69 4-.13a20.45 20.45 0 0 1 2.85 1.2 11.76 11.76 0 0 1 2.18 1.32c1.47 1.22 2.17 2.34 2.08 3.33-.15 1.68-2.54 3-4.12 3.93-.5.28-.92.52-1.25.74-3.34 2.32-5 8.35-5.46 13.29l1.43.72c.45-6 2.37-11.06 4.88-12.79a11.83 11.83 0 0 1 1.13-.68c1.85-1 4.65-2.63 4.86-5.08.14-1.5-.74-3.05-2.6-4.6a13.69 13.69 0 0 0-2.47-1.5 21.24 21.24 0 0 0-3.08-1.29c-2.34-.72-4.14-.58-5.33.4-2 1.66-1.68 5.12-1.48 7.2 0 .26.02.53.04.79z" class="T"/><path d="M305.456 171.478l.731-1.457 20.675 10.371-.731 1.457z" class="U"/><path class="Q" d="M326.86 180.38l5.36-10.68-5.83-2.93.08-.05a11.83 11.83 0 0 1 1.13-.68c1.85-1 4.65-2.63 4.86-5.08.14-1.5-.74-3.05-2.6-4.6a14.2 14.2 0 0 0-2.46-1.5l-.66 1.32a12 12 0 0 1 2.17 1.32c1.47 1.22 2.17 2.34 2.08 3.33-.15 1.68-2.54 3-4.12 3.93l-1.25.74a7 7 0 0 0-.67.55l-2.53-1.27-6.09 12.14 9.8 4.92.73-1.46z" fill="#c2d6f0"/><path d="M288.942 239.817l7.224-2.942 5.771 14.17-7.224 2.942z" class="T"/><path d="M289.86,246.84l14.63,35.91a2,2,0,0,0,2.61,1.1l6.81-2.77a2,2,0,0,0,1.1-2.62l-14.62-35.91Z" fill="#a6c4e9"/><path d="M291.208 250.149l10.521-4.285 1.694 4.158-10.521 4.285zm2.107 5.215l10.522-4.283.965 2.371-10.522 4.283z" class="T"/><path d="M306.72 206.72A25.06 25.06 0 1 1 274.06 193a25 25 0 0 1 32.66 13.72z" class="U"/><path d="M302.6,208.4a20.61,20.61,0,1,1-26.86-11.32A20.62,20.62,0,0,1,302.6,208.4Z" fill="#fff"/><path class="F Y" d="M306.72 206.72A25.05 25.05 0 0 0 274.06 193l-.14.06 36.45 89.51 3.54-1.44a2 2 0 0 0 1.1-2.62l-14.62-35.91-1.65.68-2.28-5.6a25 25 0 0 0 10.26-30.96z"/><path d="M181.94,269.06a2.94,2.94,0,0,1-3.37,2.43L125,264.28a2.94,2.94,0,0,1-2.61-3.23l8.09-60.15a3,3,0,0,1,3.38-2.43l53.53,7.21a2.94,2.94,0,0,1,2.61,3.24Z" class="U"/><g fill="#fff"><path d="M183,223.27a2.37,2.37,0,0,1-2.54,2.15l-45-6.06a2.37,2.37,0,0,1-1.87-2.75l1.27-9.43a2.35,2.35,0,0,1,2.53-2.15l45,6.06a2.35,2.35,0,0,1,1.88,2.74Z"/><rect x="131.49" y="225.89" width="9.21" height="7.31" rx="1.27" transform="matrix(.133294 -.991076 .991076 .133294 -109.55 333.82)"/><rect x="141.69" y="227.27" width="9.21" height="7.31" rx="1.27" transform="matrix(.133467 -.991053 .991053 .133467 -102.08 345.09)"/><rect x="151.88" y="228.64" width="9.21" height="7.31" rx="1.27" transform="matrix(.13 -.99 .99 .13 -94.6 356.4)"/><rect x="162.07" y="230.01" width="9.21" height="7.31" rx="1.27" transform="matrix(.133294 -.991076 .991076 .133294 -87.13 367.69)"/><rect x="172.25" y="231.54" width="9.21" height="7.31" rx="1.27" transform="matrix(.133294 -.991076 .991076 .133294 -79.82 379.1)"/><rect x="129.86" y="238.02" width="9.21" height="7.31" rx="1.27" transform="matrix(.133294 -.991076 .991076 .133294 -122.98 342.7)"/><rect x="140.05" y="239.39" width="9.21" height="7.31" rx="1.27" transform="matrix(.133294 -.991076 .991076 .133294 -115.5 353.99)"/><rect x="150.25" y="240.76" width="9.21" height="7.31" rx="1.27" transform="matrix(.133467 -.991053 .991053 .133467 -108.04 365.27)"/><rect x="128.16" y="250.61" width="9.21" height="7.31" rx="1.27" transform="matrix(.133467 -.991053 .991053 .133467 -136.94 351.92)"/><rect x="138.36" y="251.98" width="9.21" height="7.31" rx="1.27" transform="matrix(.133467 -.991053 .991053 .133467 -129.46 363.21)"/><rect x="148.55" y="253.36" width="9.21" height="7.31" rx="1.27" transform="matrix(.133294 -.991076 .991076 .133294 -121.98 374.53)"/></g><rect x="158.01" y="244.17" width="22.24" height="17.47" rx="1.27" transform="matrix(.133467 -.991053 .991053 .133467 -104.08 386.78)" fill="#75a4dc"/><path class="F Y" d="M187.43 205.68L160.19 202l-8.86 65.81 27.24 3.67a2.94 2.94 0 0 0 3.37-2.43l8.1-60.14a2.94 2.94 0 0 0-2.61-3.23z"/></g><defs ><path id="B" d="M138.59 159.61h9.78a1.5 1.5 0 0 1 1.5 1.5v7.77a1.5 1.5 0 0 1-1.5 1.5h-9.78a1.51 1.51 0 0 1-1.51-1.51v-7.77a1.5 1.5 0 0 1 1.51-1.49z"/><path id="C" d="M79.214 219.598l63.349-25.556.995 2.467-63.349 25.556z"/></defs></svg>