<svg xmlns="http://www.w3.org/2000/svg" viewBox="0 0 416 337" xmlns:v="https://vecta.io/nano"><style><![CDATA[.J{stroke:#00acff}.K{fill:#00acff}.L{stroke-miterlimit:10}.M{fill:#0056bf}.N{fill:#a6e2ff}]]></style><path d="M0 0h416v337H0z" fill="#fff"/><g class="J K"><ellipse cx="229.21" cy="318.56" rx="93.71" ry="11.31"/><g class="L"><path d="M232.994 77.845l1.739.659-8.003 21.125-1.739-.659z"/><rect x="227.32" y="73.07" width="14.12" height="6.34" rx="1.91" transform="matrix(.935135 .354291 -.354291 .935135 42.22 -78.1)"/></g></g><g fill="none" class="J L"><path d="M247.41 60.76l-6.2 9.5m3.25-11.83l-6.2 9.5m87.61 41.22l-7.19 13.46m10.42-11.09l-7.18 13.45M223.18 72.3l-6.13-13.97m2.27 15.05l-6.13-13.97m-85.07 42.1l-1.93-15.14m-2.07 15.08l-1.93-15.13m200.98 187.73a125.79 125.79 0 0 0 20.66-104.64m-26.46 112.06l3.88-4.84"/><path d="M333.75 179.39q-.76-4.33-1.86-8.6m-13.37 88.96A115.61 115.61 0 0 0 334.6 185m-36.39 99.87a123.61 123.61 0 0 0 18-21.47M89.9 145.3a116.83 116.83 0 0 0-3.62 78.24m11.17-93.4a116 116 0 0 0-5.75 11m-.21 62.64a107 107 0 0 0 2.23 11.65m6.8-71.09a106.77 106.77 0 0 0-9.39 34.15 108 108 0 0 0-.22 19.92"/></g><path d="M162.78 66a2 2 0 0 1-.55-3.88c6.77-2.7 20.38-8.32 23.38-10.12 2-1.17 4.12-9 5.52-14.17.83-3 1.61-5.93 2.44-8.19 2.93-8 6.8-11.54 23.21-13.13a118.09 118.09 0 0 1 12.78-.51h.17l15.41 1.47h.18a123.16 123.16 0 0 1 13.8 3.4c15.74 4.92 18.79 9.22 20 17.61.51 3.48-.19 8-.87 12.37-.56 3.62-1.5 9.67-.38 10.68 2.57 2.35 14.74 10.63 20.82 14.68a2 2 0 0 1-2.24 3.36c-.73-.49-17.86-11.92-21.3-15.06-2.72-2.47-1.87-7.94-.89-14.28.64-4.07 1.29-8.29.87-11.17-.89-6-2.12-9.62-17.25-14.34a117.53 117.53 0 0 0-13.24-3.27L229.44 20a116.39 116.39 0 0 0-12.27.51c-15.77 1.53-17.72 4.82-19.81 10.51-.77 2.09-1.53 4.89-2.33 7.85-2.39 8.81-4.19 14.73-7.37 16.6-4 2.36-23.11 10.05-23.93 10.38a2.09 2.09 0 0 1-.95.15z" class="K"/><g transform="matrix(.969829 -.243784 .243784 .969829 -16.28 45.24)"><ellipse cx="174.61" cy="88.39" rx="43.14" ry="16.36" class="N"/><ellipse cx="174.61" cy="88.39" rx="43.14" ry="16.36" opacity=".29"/><ellipse cx="174.61" cy="88.39" rx="43.14" ry="16.36" fill="none" class="J"/></g><g class="L J"><path d="M181.43 107l-6.8 1.84L163 56.3a2.72 2.72 0 0 1 1.89-3.3l1.56-.42a2.7 2.7 0 0 1 3.33 1.91z" class="K"/><path d="M132.78 98.91c-2.21-8.76 14.74-20.57 37.84-26.38s43.62-3.42 45.83 5.35a6.57 6.57 0 0 1 .06 2.83 7 7 0 0 0 .49-2.61c-.21-2.4-2-7.51-6.09-13.51s-8.57-7.28-8.57-7.28l-1.78-.55c-7.35-3.13-19.51-3.41-32.54-.14-11 2.78-20.34 7.52-25.95 12.69-1.86 1.59-9 8.15-10.14 16.08-1.32 9.13.56 15.26 2.9 17.15a.61.61 0 0 0 .31 0 7.24 7.24 0 0 1-2.36-3.63z" class="M"/></g><g fill="#fff"><path d="M144.61 73.59a1.58 1.58 0 0 1-1.07-.57 1.61 1.61 0 0 1 .2-2.27 59.19 59.19 0 0 1 24.39-12.34 1.612 1.612 0 0 1 .73 3.14 55.89 55.89 0 0 0-23 11.67 1.65 1.65 0 0 1-1.25.37zm-6.07 6.01a1.59 1.59 0 0 1-.83-.34 1.61 1.61 0 0 1-.27-2.26 33.17 33.17 0 0 1 2.42-2.68 1.62 1.62 0 0 1 2.3 2.27C140.74 78 140 79 140 79a1.65 1.65 0 0 1-1.46.6z"/><ellipse cx="193.66" cy="189.01" rx="86.03" ry="83.9" transform="matrix(.102793 -.994703 .994703 .102793 -14.26 362.21)" class="J"/></g><g class="L J"><g class="M"><path d="M234.53 99.24L204.61 95l-1.74 4.64c-43 7.6-77.69 43.43-82.47 89.7-5.76 55.75 34 105.54 88.89 111.21s104-34.93 109.77-90.67c5.6-54.25-31.95-102.88-84.53-110.64z"/><path d="M229.9,97.7l-23.39-2.4-8.27,2.81c-43,7.6-77.69,43.43-82.47,89.7-5.76,55.75,34,105.54,88.9,111.21s104-34.93,109.76-90.68C320,154.09,282.48,105.48,229.9,97.7Z"/></g><path d="M244.7 101.07A101.54 101.54 0 0 1 295.08 200c-5.76 55.75-54.9 96.34-109.76 90.67a98 98 0 0 1-19.15-3.92 98.16 98.16 0 0 0 38.5 12.25c54.86 5.67 104-34.93 109.76-90.68 5.06-48.99-25.09-93.38-69.73-107.25z" class="K"/><path d="M226 275.52l.81 2.41 9.29 27.28 9.41 15.8a2.83 2.83 0 0 0 3.51 1.17h0a2.83 2.83 0 0 0 1.68-3.25l-4.45-19.58-11.63-27.55m-93.51-15.1l-1.67 1.92-18.84 21.81-14.6 11.11a2.83 2.83 0 0 1-3.69-.23h0a2.83 2.83 0 0 1-.34-3.64l11.47-16.49L134.51 250" class="N"/></g><ellipse cx="194.88" cy="189.21" rx="94.7" ry="92.35" transform="matrix(.102793 -.994703 .994703 .102793 -13.36 363.6)" class="J M"/><ellipse cx="194.88" cy="189.21" rx="85.15" ry="83.04" transform="matrix(.102793 -.994703 .994703 .102793 -13.37 363.6)" fill="#fff" class="J"/><g class="L J"><path d="M193.62 186.06l4.98-41.18-2.28 41.1-2.7.08zm-.87 5.11l-61.9 26.32L193.44 187l-.69 4.17z" class="N"/><path d="M198.46 189.58a3.61 3.61 0 1 1-3.2-4.05 3.64 3.64 0 0 1 3.2 4.05z" class="K"/><path d="M275.65 197.56l-4.78-.49m-151.98-15.71l-4.78-.49m156.78-21.43l-4.51 1.77m-143 56l-4.51 1.77m124.22-97.03l-2.86 3.99m-90.71 126.53l-2.86 3.99m-16.05-109.29l-4.05-2.65m136.64 89.37l-4.05-2.65M163.42 118l-1.99-4.49m66.88 151.39l-1.98-4.49m-23.4-149.13l.51-4.89m-17.12 165.64l.51-4.9" fill="none"/><path d="M266 116.32h0a2.5 2.5 0 0 0 3.4-.76l27.81-42.08-4.3-2.62-27.7 41.93a2.5 2.5 0 0 0 .79 3.53z" class="K"/><path d="M241.39,80.33l71,43.32,8.12-13.82a12,12,0,0,0-4-16.64L266.42,62.63a12.38,12.38,0,0,0-16.91,3.88Z" class="M"/></g><path d="M303.76 98.85a1.84 1.84 0 0 1-.66-.22l-38.55-23a1.62 1.62 0 0 1 1.66-2.78l38.55 23a1.61 1.61 0 0 1-1 3zm-44.23-26.4a1.52 1.52 0 0 1-.66-.22L253.43 69a1.62 1.62 0 0 1 1.65-2.78l5.45 3.25a1.61 1.61 0 0 1 .55 2.21 1.59 1.59 0 0 1-1.55.77z" fill="#fff"/></svg>